<svg width="606" height="606" xmlns="http://www.w3.org/2000/svg" xmlns:xlink="http://www.w3.org/1999/xlink" overflow="hidden"><defs><clipPath id="clip0"><rect x="-1" y="-1" width="606" height="606"/></clipPath></defs><g clip-path="url(#clip0)" transform="translate(1 1)"><rect x="0" y="0" width="605" height="333" fill="#0F1FF3"/><path d="M333 393C333 275.916 380.234 181 438.5 181 496.766 181 544 275.916 544 393 544 510.084 496.766 605 438.5 605 380.234 605 333 510.084 333 393Z" fill="#0F1FF3" fill-rule="evenodd"/><path d="M60 393C60 275.916 107.458 181 166 181 224.542 181 272 275.916 272 393 272 510.084 224.542 605 166 605 107.458 605 60 510.084 60 393Z" fill="#0F1FF3" fill-rule="evenodd"/><path d="M180 240C180 157.71 241.113 91 316.5 91 391.887 91 453 157.71 453 240 453 322.29 391.887 389 316.5 389 241.113 389 180 322.29 180 240Z" fill="#FFFFFF" fill-rule="evenodd"/><path d="M242 272 272.207 272 273.12 284.137C277.344 311.782 295.609 332.577 317.5 332.577 339.391 332.577 357.656 311.782 361.88 284.137L362.793 272 393 272C393 322.258 359.197 363 317.5 363 275.802 363 242 322.258 242 272Z" fill-rule="evenodd"/><path d="M363 196.5C363 187.94 369.716 181 378 181 386.284 181 393 187.94 393 196.5 393 205.06 386.284 212 378 212 369.716 212 363 205.06 363 196.5Z" fill-rule="evenodd"/><path d="M272 196.5C272 187.94 278.716 181 287 181 295.284 181 302 187.94 302 196.5 302 205.06 295.284 212 287 212 278.716 212 272 205.06 272 196.5Z" fill-rule="evenodd"/></g></svg>
